<svg xmlns="http://www.w3.org/2000/svg" viewBox="0 0 1180 760" role="img" aria-labelledby="title desc">
  <title id="title">Overpass positioning route teaching diagram</title>
  <desc id="desc">A schematic Overpass route diagram showing separate Bathrooms and Long approaches to A, separate Monster and Water approaches to B, Connector information, and long defender rotations. Route relationships are verified against the cited overview; shapes are not to scale.</desc>
  <defs>
    <style>.bg{fill:#0f172a}.panel{fill:#111827;stroke:#334155;stroke-width:2}.route{fill:#374151;stroke:#cbd5e1;stroke-width:2.5}.site{fill:#4b5563;stroke:#e5e7eb;stroke-width:3}.label{fill:#f8fafc;font:700 16px Arial,sans-serif}.small{fill:#cbd5e1;font:15px Arial,sans-serif}.head{fill:#f8fafc;font:700 22px Arial,sans-serif}.ct{fill:#3b82f6;stroke:#dbeafe;stroke-width:3}.t{fill:#ef4444;stroke:#fee2e2;stroke-width:3}.zone{fill:#facc15;fill-opacity:.28;stroke:#fde68a;stroke-width:3}.arrow{fill:none;stroke:#fff;stroke-width:5;stroke-linecap:round;marker-end:url(#a)}.ctroute{fill:none;stroke:#60a5fa;stroke-width:4;stroke-dasharray:10 8;marker-end:url(#b)}.link{fill:none;stroke:#64748b;stroke-width:12;stroke-linecap:round}.legend{fill:#f8fafc;font:16px Arial,sans-serif}</style>
    <marker id="a" viewBox="0 0 10 10" refX="8" refY="5" markerWidth="8" markerHeight="8" orient="auto"><path d="M0 0 10 5 0 10z" fill="#fff"/></marker><marker id="b" viewBox="0 0 10 10" refX="8" refY="5" markerWidth="8" markerHeight="8" orient="auto"><path d="M0 0 10 5 0 10z" fill="#60a5fa"/></marker>
  </defs>
  <rect class="bg" width="1180" height="760"/><rect class="panel" x="36" y="36" width="824" height="688" rx="18"/><rect class="panel" x="884" y="36" width="268" height="688" rx="18"/>
  <text class="head" x="68" y="82">OVERPASS · ROUTE SCHEMATIC</text><text class="small" x="68" y="108">Verified route order; teaching layout, not to scale</text>
  <path class="link" d="M142 610 272 500 432 294 674 210"/><path class="link" d="M142 610 300 366 674 210"/><path class="link" d="M142 610 340 618 540 566 700 516"/><path class="link" d="M142 610 330 520 540 566"/><path class="link" d="M432 294 470 438 540 566"/><path class="link" d="M674 210 764 340 700 516"/>
  <rect class="route" x="88" y="580" width="120" height="64" rx="10"/><text class="label" x="112" y="618">T Spawn</text><rect class="route" x="218" y="468" width="120" height="64" rx="10"/><text class="label" x="238" y="506">Fountain</text><rect class="route" x="370" y="262" width="140" height="64" rx="10"/><text class="label" x="388" y="300">Bathrooms</text><rect class="route" x="244" y="334" width="108" height="64" rx="10"/><text class="label" x="278" y="372">Long</text><rect class="site" x="620" y="174" width="112" height="78" rx="12"/><text class="label" x="637" y="219">A SITE</text>
  <rect class="route" x="284" y="586" width="120" height="64" rx="10"/><text class="label" x="308" y="624">Monster</text><rect class="route" x="474" y="534" width="112" height="64" rx="10"/><text class="label" x="502" y="572">Water</text><rect class="route" x="414" y="406" width="122" height="64" rx="10"/><text class="label" x="436" y="444">Connector</text><rect class="site" x="646" y="480" width="112" height="78" rx="12"/><text class="label" x="663" y="525">B SITE</text><rect class="route" x="708" y="308" width="112" height="64" rx="10"/><text class="label" x="732" y="346">CT Spawn</text>
  <ellipse class="zone" cx="438" cy="294" rx="94" ry="58"/><ellipse class="zone" cx="530" cy="566" rx="88" ry="56"/>
  <path class="arrow" data-edge="bathrooms-to-a" d="M498 282 C548 256 584 232 614 218"/><path class="arrow" data-edge="long-to-a" d="M342 352 C450 300 548 250 614 222"/><path class="arrow" data-edge="monster-to-b" d="M398 614 C500 610 580 566 640 532"/><path class="arrow" data-edge="water-to-b" d="M580 554 C604 544 622 534 640 524"/><path class="ctroute" data-edge="connector-information" d="M472 434 C500 474 520 510 530 530"/><path class="ctroute" data-edge="ct-to-a" d="M754 318 C734 282 712 248 694 230"/><path class="ctroute" data-edge="ct-to-b" d="M764 362 C762 416 738 456 720 480"/>
  <circle class="t" cx="494" cy="294" r="14"/><circle class="t" cx="336" cy="366" r="14"/><circle class="t" cx="390" cy="618" r="14"/><circle class="t" cx="570" cy="566" r="14"/><circle class="ct" cx="704" cy="214" r="14"/><circle class="ct" cx="730" cy="518" r="14"/><circle class="ct" cx="532" cy="438" r="14"/>
  <text class="head" x="912" y="84">Teaching read</text><text class="small" x="912" y="118">Bathrooms and Long split A.</text><text class="small" x="912" y="142">Monster and Water split B.</text><text class="small" x="912" y="166">Connector supplies verified</text><text class="small" x="912" y="190">information for long rotates.</text>
  <text class="head" x="912" y="264">Legend</text><circle class="ct" cx="930" cy="306" r="12"/><text class="legend" x="958" y="312">CT hold / support</text><circle class="t" cx="930" cy="350" r="12"/><text class="legend" x="958" y="356">T pressure point</text><rect class="zone" x="916" y="386" width="28" height="22" rx="6"/><text class="legend" x="958" y="403">Control zone</text><line class="arrow" x1="916" y1="446" x2="948" y2="446"/><text class="legend" x="958" y="452">T route</text><line class="ctroute" x1="916" y1="486" x2="948" y2="486"/><text class="legend" x="958" y="492">CT info / rotation</text>
  <text class="head" x="912" y="552">Round rule</text><text class="small" x="912" y="586">Keep each split route</text><text class="small" x="912" y="610">tradeable. Rotate only on</text><text class="small" x="912" y="634">credible site information.</text>
</svg>
