<svg xmlns="http://www.w3.org/2000/svg" viewBox="0 0 1180 760" role="img" aria-labelledby="title desc">
  <title id="title">Inferno positioning overview teaching diagram</title>
  <desc id="desc">A simplified Counter-Strike 2 Inferno teaching diagram that shows a CT Banana anchor and support, an A anchor, a mid rotator, T pressure on Banana and A side, yellow danger zones for the early Banana fight and A-side pressure, and white arrows for the main pressure and rotation paths. The map shape is hand-authored from the verified overview source and is explicitly not a pixel-perfect radar replacement.</desc>
  <defs>
    <style>
      .bg { fill: #0f172a; }
      .panel { fill: #111827; stroke: #334155; stroke-width: 2; }
      .map-shell { fill: #1f2937; stroke: #94a3b8; stroke-width: 3; }
      .lane { fill: #4b5563; stroke: #cbd5e1; stroke-width: 2.5; }
      .lane-alt { fill: #5b6472; stroke: #cbd5e1; stroke-width: 2.5; }
      .callout { fill: #f8fafc; font-family: Arial, Helvetica, sans-serif; font-size: 18px; font-weight: 700; letter-spacing: 0.3px; }
      .map-label { fill: #e5e7eb; font-family: Arial, Helvetica, sans-serif; font-size: 16px; font-weight: 700; letter-spacing: 0.2px; }
      .small { font-size: 14px; }
      .body { fill: #e5e7eb; font-family: Arial, Helvetica, sans-serif; font-size: 18px; }
      .body-small { fill: #cbd5e1; font-family: Arial, Helvetica, sans-serif; font-size: 16px; }
      .caption { fill: #fde68a; font-family: Arial, Helvetica, sans-serif; font-size: 18px; font-weight: 700; }
      .ct { fill: #3b82f6; stroke: #dbeafe; stroke-width: 3; }
      .t { fill: #ef4444; stroke: #fee2e2; stroke-width: 3; }
      .zone { fill: #facc15; fill-opacity: 0.28; stroke: #fde68a; stroke-width: 3; }
      .arrow { fill: none; stroke: #ffffff; stroke-width: 5; stroke-linecap: round; stroke-linejoin: round; marker-end: url(#arrowhead); }
      .leader { fill: none; stroke: #e5e7eb; stroke-width: 2.5; stroke-linecap: round; }
      .role-box { fill: #0f172a; stroke: #cbd5e1; stroke-width: 2; rx: 8; ry: 8; }
      .legend-text { fill: #f8fafc; font-family: Arial, Helvetica, sans-serif; font-size: 17px; }
    </style>
    <marker id="arrowhead" viewBox="0 0 10 10" refX="8.2" refY="5" markerWidth="8" markerHeight="8" orient="auto-start-reverse">
      <path d="M 0 0 L 10 5 L 0 10 z" fill="#ffffff"/>
    </marker>
  </defs>

  <rect class="bg" x="0" y="0" width="1180" height="760"/>

  <g aria-label="simplified Inferno map overview">
    <rect class="map-shell" x="36" y="36" width="824" height="688" rx="18" ry="18"/>
    <text class="callout" x="74" y="88">INFERNO</text>

    <rect class="lane-alt" x="74" y="418" width="102" height="118" rx="8" ry="8"/>
    <polygon class="lane" points="176,394 318,394 318,458 254,458 254,524 176,524"/>
    <polygon class="lane-alt" points="244,524 430,524 430,584 244,584"/>
    <polygon class="lane" points="302,584 476,584 476,646 336,646 336,612 302,612"/>
    <polygon class="lane-alt" points="380,312 566,312 566,462 380,462"/>
    <polygon class="lane" points="366,262 434,176 506,176 506,268 436,356 366,356"/>
    <polygon class="lane-alt" points="434,88 602,88 602,176 506,176 506,134 434,134"/>
    <polygon class="lane" points="602,120 704,120 704,248 642,248 642,316 566,316 566,222 602,222"/>
    <polygon class="lane-alt" points="566,332 734,332 734,390 566,390"/>
    <polygon class="lane" points="566,390 706,390 706,514 566,514"/>
    <polygon class="lane-alt" points="706,332 838,332 838,530 706,530"/>
    <polygon class="lane" points="736,530 878,530 878,650 724,650 724,574 736,574"/>

    <text class="map-label" x="96" y="486">T Spawn</text>
    <text class="map-label" x="202" y="432">T Ramp</text>
    <text class="map-label small" x="200" y="452">(Pit)</text>
    <text class="map-label" x="284" y="560">2nd Mid</text>
    <text class="map-label" x="336" y="612">Apts</text>
    <text class="map-label" x="446" y="398">Mid</text>
    <text class="map-label" x="392" y="286" transform="rotate(-58 392 286)">Banana</text>
    <text class="map-label" x="468" y="132">B</text>
    <text class="map-label" x="630" y="172">CT</text>
    <text class="map-label" x="626" y="294">Arch</text>
    <text class="map-label" x="628" y="368">A Long</text>
    <text class="map-label" x="606" y="470">A Short</text>
    <text class="map-label" x="760" y="470">A</text>
    <text class="map-label" x="772" y="616">Pit</text>
    <text class="map-label small" x="432" y="248">Car</text>

    <ellipse class="zone" cx="446" cy="286" rx="86" ry="48" transform="rotate(-24 446 286)"/>
    <ellipse class="zone" cx="700" cy="420" rx="94" ry="56" transform="rotate(-12 700 420)"/>
    <text class="caption" x="344" y="224">Banana fight</text>
    <text class="caption" x="626" y="356">A pressure / rotate tax</text>

    <path class="arrow" d="M 360 406 C 392 372, 420 334, 456 298"/>
    <path class="arrow" d="M 396 554 C 456 526, 522 494, 606 448"/>
    <path class="arrow" d="M 652 278 C 620 244, 588 210, 548 176"/>
    <path class="arrow" d="M 790 520 C 756 488, 724 462, 686 432"/>

    <g aria-label="CT Banana anchor">
      <line class="leader" x1="430" y1="256" x2="330" y2="228"/>
      <rect class="role-box" x="208" y="196" width="122" height="40"/>
      <circle class="ct" cx="430" cy="256" r="14"/>
      <text class="legend-text" x="224" y="222">B anchor</text>
    </g>

    <g aria-label="CT Banana support">
      <line class="leader" x1="528" y1="166" x2="628" y2="126"/>
      <rect class="role-box" x="628" y="96" width="130" height="40"/>
      <circle class="ct" cx="528" cy="166" r="14"/>
      <text class="legend-text" x="644" y="122">B support</text>
    </g>

    <g aria-label="CT mid rotator">
      <line class="leader" x1="654" y1="276" x2="760" y2="244"/>
      <rect class="role-box" x="760" y="214" width="120" height="40"/>
      <circle class="ct" cx="654" cy="276" r="14"/>
      <text class="legend-text" x="776" y="240">Rotator</text>
    </g>

    <g aria-label="CT A anchor">
      <line class="leader" x1="790" y1="520" x2="730" y2="556"/>
      <rect class="role-box" x="610" y="536" width="118" height="40"/>
      <circle class="ct" cx="790" cy="520" r="14"/>
      <text class="legend-text" x="626" y="562">A anchor</text>
    </g>

    <g aria-label="T Banana pressure">
      <line class="leader" x1="360" y1="406" x2="250" y2="430"/>
      <rect class="role-box" x="128" y="410" width="122" height="40"/>
      <circle class="t" cx="360" cy="406" r="14"/>
      <text class="legend-text" x="144" y="436">T Banana</text>
    </g>

    <g aria-label="T A-side pressure">
      <line class="leader" x1="396" y1="554" x2="228" y2="636"/>
      <rect class="role-box" x="84" y="616" width="144" height="40"/>
      <circle class="t" cx="396" cy="554" r="14"/>
      <text class="legend-text" x="100" y="642">T A pressure</text>
    </g>
  </g>

  <g aria-label="legend and teaching note">
    <rect class="panel" x="884" y="36" width="268" height="688" rx="18" ry="18"/>
    <text class="callout" x="912" y="86">Teaching diagram</text>
    <text class="body-small" x="912" y="122">Simplified from the verified</text>
    <text class="body-small" x="912" y="146">Inferno overview source.</text>
    <text class="body-small" x="912" y="178">Not a pixel-perfect radar</text>
    <text class="body-small" x="912" y="202">replacement.</text>

    <text class="callout" x="912" y="266">Legend</text>
    <circle class="ct" cx="930" cy="306" r="12"/>
    <text class="legend-text" x="958" y="312">CT player / hold</text>
    <circle class="t" cx="930" cy="350" r="12"/>
    <text class="legend-text" x="958" y="356">T pressure point</text>
    <rect class="zone" x="916" y="386" width="28" height="22" rx="6" ry="6"/>
    <text class="legend-text" x="958" y="403">Active utility / danger</text>
    <line class="arrow" x1="916" y1="446" x2="948" y2="446"/>
    <text class="legend-text" x="958" y="452">Movement / rotation</text>

    <text class="callout" x="912" y="520">Setup read</text>
    <text class="body" x="912" y="556">Banana gets two CT</text>
    <text class="body" x="912" y="582">layers early, Mid keeps</text>
    <text class="body" x="912" y="608">the rotate honest, and</text>
    <text class="body" x="912" y="634">A stays anchored until</text>
    <text class="body" x="912" y="660">clear info forces help.</text>
  </g>
</svg>
