<svg xmlns="http://www.w3.org/2000/svg" viewBox="0 0 1180 760" role="img" aria-labelledby="title desc">
  <title id="title">Ancient positioning route teaching diagram</title>
  <desc id="desc">A schematic Ancient route diagram showing T pressure through Mid and Donut, a direct A Main approach to A Site, B Lobby spacing, and a separate blue dashed CT rotation between CT Spawn, Temple, and A Site. Route order is verified against the cited overview; shapes are not to scale.</desc>
  <defs>
    <style>.bg{fill:#0f172a}.panel{fill:#111827;stroke:#334155;stroke-width:2}.route{fill:#374151;stroke:#cbd5e1;stroke-width:2.5}.site{fill:#4b5563;stroke:#e5e7eb;stroke-width:3}.label{fill:#f8fafc;font:700 17px Arial,sans-serif}.small{fill:#cbd5e1;font:15px Arial,sans-serif}.head{fill:#f8fafc;font:700 22px Arial,sans-serif}.ct{fill:#3b82f6;stroke:#dbeafe;stroke-width:3}.t{fill:#ef4444;stroke:#fee2e2;stroke-width:3}.zone{fill:#facc15;fill-opacity:.28;stroke:#fde68a;stroke-width:3}.arrow{fill:none;stroke:#fff;stroke-width:5;stroke-linecap:round;stroke-linejoin:round;marker-end:url(#a)}.link{fill:none;stroke:#64748b;stroke-width:12;stroke-linecap:round}.ctroute{fill:none;stroke:#60a5fa;stroke-width:5;stroke-dasharray:10 8;stroke-linecap:round}.legend{fill:#f8fafc;font:16px Arial,sans-serif}</style>
    <marker id="a" viewBox="0 0 10 10" refX="8" refY="5" markerWidth="8" markerHeight="8" orient="auto"><path d="M0 0 10 5 0 10z" fill="#fff"/></marker>
  </defs>
  <rect class="bg" width="1180" height="760"/><rect class="panel" x="36" y="36" width="824" height="688" rx="18"/><rect class="panel" x="884" y="36" width="268" height="688" rx="18"/>
  <text class="head" x="68" y="82">ANCIENT · ROUTE SCHEMATIC</text><text class="small" x="68" y="108">Verified route order; teaching layout, not to scale</text>
  <path class="link" d="M160 620 300 540 430 430 560 330 700 220"/><path class="link" data-edge="a-main-to-a-site" d="M160 620 250 470 C360 354 520 270 700 220"/><path class="link" d="M160 620 390 610 620 570 760 500"/><path class="link" d="M560 330 720 350 760 500"/><path class="ctroute" data-edge="ct-temple-rotation" d="M790 180 C680 132 540 132 390 180"/><path class="ctroute" data-edge="temple-to-a-hold" d="M454 180 C532 172 604 190 654 218"/>
  <rect class="route" x="95" y="585" width="130" height="64" rx="10"/><text class="label" x="125" y="623">T Spawn</text>
  <rect class="route" x="236" y="505" width="128" height="64" rx="10"/><text class="label" x="265" y="543">Top Mid</text>
  <rect class="route" x="370" y="398" width="120" height="64" rx="10"/><text class="label" x="410" y="436">Mid</text>
  <rect class="route" x="505" y="298" width="112" height="64" rx="10"/><text class="label" x="532" y="336">Donut</text>
  <rect class="site" x="654" y="184" width="110" height="72" rx="12"/><text class="label" x="666" y="206">A SITE</text>
  <rect class="route" x="196" y="438" width="108" height="64" rx="10"/><text class="label" x="216" y="476">A Main</text>
  <rect class="route" x="326" y="145" width="128" height="64" rx="10"/><text class="label" x="355" y="183">Temple</text>
  <rect class="route" x="326" y="578" width="128" height="64" rx="10"/><text class="label" x="347" y="616">B Lobby</text>
  <rect class="route" x="558" y="538" width="124" height="64" rx="10"/><text class="label" x="585" y="576">B Ramp</text>
  <rect class="site" x="706" y="464" width="110" height="72" rx="12"/><text class="label" x="718" y="486">B SITE</text>
  <rect class="route" x="712" y="145" width="140" height="64" rx="10"/><text class="label" x="724" y="183">CT Spawn</text>
  <ellipse class="zone" cx="444" cy="430" rx="90" ry="58"/><ellipse class="zone" cx="568" cy="330" rx="74" ry="48"/>
  <path class="arrow" d="M185 605 C260 560 340 500 414 448"/><path class="arrow" d="M454 412 C500 380 526 354 548 338"/><path class="arrow" d="M594 316 C642 282 672 250 696 232"/><path class="arrow" d="M182 594 C224 552 238 520 248 484"/><path class="arrow" data-edge="a-main-to-a-site" d="M282 454 C382 356 520 278 642 232"/><path class="arrow" d="M216 610 C350 626 540 608 730 520"/>
  <circle class="t" cx="414" cy="448" r="14"/><circle class="t" cx="282" cy="484" r="14"/><circle class="t" cx="660" cy="570" r="14"/>
  <circle class="ct" cx="734" cy="226" r="14"/><circle class="ct" cx="780" cy="507" r="14"/><circle class="ct" cx="596" cy="330" r="14"/><circle class="ct" cx="438" cy="180" r="14"/><circle class="ct" cx="834" cy="180" r="14"/>
  <text class="label" x="355" y="183">Temple</text><text class="label" x="666" y="206">A SITE</text><text class="label" x="718" y="486">B SITE</text>
  <text class="head" x="912" y="84">Teaching read</text><text class="small" x="912" y="118">Mid pressure threatens</text><text class="small" x="912" y="142">Donut and A. A Main reaches</text><text class="small" x="912" y="166">A directly; Temple remains</text><text class="small" x="912" y="190">a separate CT-side hold.</text>
  <text class="head" x="912" y="264">Legend</text><circle class="ct" cx="930" cy="306" r="12"/><text class="legend" x="958" y="312">CT hold / support</text><circle class="t" cx="930" cy="350" r="12"/><text class="legend" x="958" y="356">T pressure point</text><rect class="zone" x="916" y="386" width="28" height="22" rx="6"/><text class="legend" x="958" y="403">Decision zone</text><line class="arrow" x1="916" y1="446" x2="948" y2="446"/><text class="legend" x="958" y="452">T trade route</text><line class="ctroute" x1="916" y1="486" x2="948" y2="486"/><text class="legend" x="958" y="492">CT rotation / hold</text>
  <text class="head" x="912" y="526">Round rule</text><text class="small" x="912" y="560">Convert verified Mid info;</text><text class="small" x="912" y="584">do not feed the first lane.</text><text class="small" x="912" y="620">Regroup with the bomb if</text><text class="small" x="912" y="644">the route is denied.</text>
</svg>
