<svg xmlns="http://www.w3.org/2000/svg" viewBox="0 0 1180 760" role="img" aria-labelledby="title desc">
  <title id="title">Mirage positioning route teaching diagram</title><desc id="desc">A schematic Mirage route diagram showing parallel approaches: Top Mid branches separately toward Window, Connector, and Cat; A Ramp and Palace independently approach A Site; B Apartments and Cat independently approach B Site. Route order is verified against the cited overview; shapes are not to scale.</desc>
  <defs><style>.bg{fill:#0f172a}.panel{fill:#111827;stroke:#334155;stroke-width:2}.route{fill:#374151;stroke:#cbd5e1;stroke-width:2.5}.site{fill:#4b5563;stroke:#e5e7eb;stroke-width:3}.label{fill:#f8fafc;font:700 17px Arial,sans-serif}.small{fill:#cbd5e1;font:15px Arial,sans-serif}.head{fill:#f8fafc;font:700 22px Arial,sans-serif}.ct{fill:#3b82f6;stroke:#dbeafe;stroke-width:3}.t{fill:#ef4444;stroke:#fee2e2;stroke-width:3}.zone{fill:#facc15;fill-opacity:.28;stroke:#fde68a;stroke-width:3}.arrow{fill:none;stroke:#fff;stroke-width:5;stroke-linecap:round;stroke-linejoin:round;marker-end:url(#a)}.link{fill:none;stroke:#64748b;stroke-width:12;stroke-linecap:round}.ctroute{fill:none;stroke:#60a5fa;stroke-width:5;stroke-dasharray:10 8;stroke-linecap:round}.legend{fill:#f8fafc;font:16px Arial,sans-serif}</style><marker id="a" viewBox="0 0 10 10" refX="8" refY="5" markerWidth="8" markerHeight="8" orient="auto"><path d="M0 0 10 5 0 10z" fill="#fff"/></marker></defs>
  <rect class="bg" width="1180" height="760"/><rect class="panel" x="36" y="36" width="824" height="688" rx="18"/><rect class="panel" x="884" y="36" width="268" height="688" rx="18"/><text class="head" x="68" y="82">MIRAGE · ROUTE SCHEMATIC</text><text class="small" x="68" y="108">Verified route order; teaching layout, not to scale</text>
  <path class="link" data-edge="t-spawn-to-top-mid" d="M150 625 300 535"/><path class="link" data-edge="top-mid-to-window" d="M300 535 430 420"/><path class="link" data-edge="top-mid-to-connector" d="M300 535 C388 470 480 388 560 320"/><path class="link" data-edge="connector-to-a" d="M560 320 690 180"/><path class="link" data-edge="a-ramp-to-a" d="M150 625 250 430 C382 342 524 238 690 180"/><path class="link" data-edge="palace-to-a" d="M150 625 C172 432 242 270 390 190 L690 180"/><path class="link" data-edge="b-apps-to-b" d="M150 625 390 640 C560 700 730 668 760 505"/><path class="link" data-edge="top-mid-to-cat" d="M300 535 600 590"/><path class="link" data-edge="cat-to-b" d="M600 590 760 505"/><path class="ctroute" data-edge="ct-site-rotation" d="M690 180 725 320 778 420 760 505"/>
  <rect class="route" x="92" y="592" width="124" height="64" rx="10"/><text class="label" x="118" y="630">T Spawn</text><rect class="route" x="238" y="502" width="128" height="64" rx="10"/><text class="label" x="262" y="540">Top Mid</text><rect class="route" x="380" y="388" width="110" height="64" rx="10"/><text class="label" x="402" y="426">Window</text><rect class="route" x="510" y="288" width="118" height="64" rx="10"/><text class="label" x="528" y="326">Connector</text><rect class="site" x="638" y="144" width="108" height="72" rx="12"/><text class="label" x="650" y="186">A SITE</text>
  <rect class="route" x="196" y="398" width="110" height="64" rx="10"/><text class="label" x="214" y="436">A Ramp</text><rect class="route" x="326" y="154" width="124" height="64" rx="10"/><text class="label" x="354" y="192">Palace</text><rect class="route" x="326" y="608" width="128" height="64" rx="10"/><text class="label" x="350" y="646">B Apps</text><rect class="route" x="594" y="558" width="110" height="64" rx="10"/><text class="label" x="629" y="596">Cat</text><rect class="site" x="708" y="469" width="108" height="72" rx="12"/><text class="label" x="720" y="511">B SITE</text><rect class="route" x="676" y="288" width="116" height="64" rx="10"/><text class="label" x="700" y="326">Jungle</text><rect class="route" x="728" y="388" width="100" height="64" rx="10"/><text class="label" x="744" y="426">Market</text>
  <ellipse class="zone" cx="438" cy="420" rx="84" ry="54"/><ellipse class="zone" cx="570" cy="320" rx="78" ry="50"/><path class="arrow" d="M176 604 C220 578 258 552 286 540"/><path class="arrow" data-edge="top-mid-to-window" d="M324 518 C358 478 390 448 416 432"/><path class="arrow" data-edge="top-mid-to-connector" d="M326 522 C388 464 460 388 510 342"/><path class="arrow" d="M592 300 C618 258 624 216 626 188"/><path class="arrow" d="M176 594 C214 538 236 482 250 446"/><path class="arrow" data-edge="a-ramp-to-a" d="M282 414 C372 318 492 230 626 198"/><path class="arrow" data-edge="palace-to-a" d="M438 190 C510 184 570 186 626 188"/><path class="arrow" data-edge="b-apps-to-b" d="M184 636 C360 704 690 690 720 530"/><path class="arrow" data-edge="top-mid-to-cat" d="M326 548 C426 570 520 586 584 590"/><path class="arrow" data-edge="cat-to-b" d="M620 574 C654 548 678 526 696 512"/>
  <circle class="t" cx="350" cy="534" r="14"/><circle class="t" cx="290" cy="430" r="14"/><circle class="t" cx="438" cy="640" r="14"/><circle class="ct" cx="474" cy="420" r="14"/><circle class="ct" cx="612" cy="320" r="14"/><circle class="ct" cx="728" cy="188" r="14"/><circle class="ct" cx="800" cy="506" r="14"/><circle class="ct" cx="775" cy="320" r="14"/><circle class="ct" cx="812" cy="420" r="14"/>
  <text class="label" x="118" y="630">T Spawn</text><text class="label" x="262" y="540">Top Mid</text><text class="label" x="402" y="426">Window</text><text class="label" x="528" y="326">Connector</text><text class="label" x="650" y="186">A SITE</text><text class="label" x="214" y="436">A Ramp</text><text class="label" x="354" y="192">Palace</text><text class="label" x="350" y="646">B Apps</text><text class="label" x="629" y="596">Cat</text><text class="label" x="720" y="511">B SITE</text><text class="label" x="700" y="326">Jungle</text><text class="label" x="744" y="426">Market</text>
  <text class="head" x="912" y="84">Teaching read</text><text class="small" x="912" y="118">Top Mid branches separately</text><text class="small" x="912" y="142">to Window, Connector, or Cat.</text><text class="small" x="912" y="166">Ramp and Palace reach A;</text><text class="small" x="912" y="190">Apps and Cat reach B on</text><text class="small" x="912" y="214">independent approaches.</text><text class="head" x="912" y="264">Legend</text><circle class="ct" cx="930" cy="306" r="12"/><text class="legend" x="958" y="312">CT hold / support</text><circle class="t" cx="930" cy="350" r="12"/><text class="legend" x="958" y="356">T pressure point</text><rect class="zone" x="916" y="386" width="28" height="22" rx="6"/><text class="legend" x="958" y="403">Decision zone</text><line class="arrow" x1="916" y1="446" x2="948" y2="446"/><text class="legend" x="958" y="452">T trade route</text><line class="ctroute" x1="916" y1="486" x2="948" y2="486"/><text class="legend" x="958" y="492">CT rotation</text><text class="head" x="912" y="526">Round rule</text><text class="small" x="912" y="560">Turn Mid control into a</text><text class="small" x="912" y="584">timed split. If Mid is</text><text class="small" x="912" y="608">denied, regroup before the</text><text class="small" x="912" y="632">site players commit.</text>
</svg>
