<svg xmlns="http://www.w3.org/2000/svg" viewBox="0 0 1180 760" role="img" aria-labelledby="title desc">
  <title id="title">Nuke two-layer positioning route teaching diagram</title><desc id="desc">A schematic Nuke diagram separating surface and upper routes from lower routes, showing Outside to Secret, Lobby to upper A, Ramp and Vent transitions, lower Window and Double isolation, CT holds, and vertical movement. Route order is verified against the cited overview; shapes are not to scale.</desc>
  <defs><style>.bg{fill:#0f172a}.panel{fill:#111827;stroke:#334155;stroke-width:2}.layer{fill:#1f2937;stroke:#475569;stroke-width:2}.route{fill:#374151;stroke:#cbd5e1;stroke-width:2.3}.site{fill:#4b5563;stroke:#e5e7eb;stroke-width:3}.label{fill:#f8fafc;font:700 15px Arial,sans-serif}.small{fill:#cbd5e1;font:14px Arial,sans-serif}.head{fill:#f8fafc;font:700 21px Arial,sans-serif}.layerhead{fill:#fde68a;font:700 16px Arial,sans-serif}.ct{fill:#3b82f6;stroke:#dbeafe;stroke-width:3}.t{fill:#ef4444;stroke:#fee2e2;stroke-width:3}.zone{fill:#facc15;fill-opacity:.25;stroke:#fde68a;stroke-width:3}.arrow{fill:none;stroke:#fff;stroke-width:4.5;stroke-linecap:round;stroke-linejoin:round;marker-end:url(#a)}.vertical{fill:none;stroke:#facc15;stroke-width:4;stroke-dasharray:9 8;marker-end:url(#v)}.link{fill:none;stroke:#64748b;stroke-width:10;stroke-linecap:round}.legend{fill:#f8fafc;font:15px Arial,sans-serif}</style><marker id="a" viewBox="0 0 10 10" refX="8" refY="5" markerWidth="8" markerHeight="8" orient="auto"><path d="M0 0 10 5 0 10z" fill="#fff"/></marker><marker id="v" viewBox="0 0 10 10" refX="8" refY="5" markerWidth="8" markerHeight="8" orient="auto"><path d="M0 0 10 5 0 10z" fill="#facc15"/></marker></defs>
  <rect class="bg" width="1180" height="760"/><rect class="panel" x="28" y="28" width="842" height="704" rx="18"/><rect class="panel" x="892" y="28" width="260" height="704" rx="18"/><text class="head" x="56" y="68">NUKE · TWO-LAYER ROUTE SCHEMATIC</text><text class="small" x="56" y="94">Verified route order; teaching layout, not to scale</text>
  <rect class="layer" x="54" y="116" width="790" height="270" rx="15"/><text class="layerhead" x="76" y="144">SURFACE / UPPER</text><rect class="layer" x="54" y="414" width="790" height="290" rx="15"/><text class="layerhead" x="76" y="442">LOWER</text>
  <path class="link" d="M120 326 245 316 390 316"/><path class="link" d="M120 326 245 202 430 190 600 190 742 202"/><path class="link" d="M245 202 430 294"/><path class="link" d="M430 294 600 190"/><path class="link" d="M390 316 742 202"/>
  <rect class="route" x="78" y="296" width="116" height="58" rx="9"/><rect class="route" x="204" y="286" width="114" height="58" rx="9"/><rect class="route" x="340" y="286" width="110" height="58" rx="9"/><rect class="route" x="204" y="172" width="104" height="58" rx="9"/><rect class="route" x="370" y="160" width="130" height="58" rx="9"/><rect class="site" x="548" y="154" width="110" height="70" rx="11"/><rect class="route" x="684" y="172" width="116" height="58" rx="9"/><rect class="route" x="370" y="264" width="116" height="58" rx="9"/>
  <ellipse class="zone" cx="260" cy="316" rx="76" ry="48"/><path class="arrow" d="M154 312 C174 310 188 312 198 314"/><path class="arrow" d="M282 306 C302 304 318 308 330 312"/><path class="arrow" d="M142 300 C166 250 184 220 196 206"/><path class="arrow" d="M282 190 C312 182 338 182 358 186"/><path class="arrow" d="M474 178 C498 176 520 180 536 188"/>
  <path class="link" d="M210 508 380 510 620 556"/><path class="link" d="M210 620 390 622 620 556"/><path class="link" d="M380 510 620 556 748 642"/><path class="link" d="M390 622 620 556"/>
  <rect class="route" x="136" y="478" width="146" height="58" rx="9"/><rect class="route" x="136" y="590" width="146" height="58" rx="9"/><rect class="route" x="324" y="478" width="116" height="58" rx="9"/><rect class="route" x="324" y="590" width="152" height="58" rx="9"/><rect class="site" x="564" y="520" width="118" height="72" rx="11"/><rect class="route" x="690" y="614" width="112" height="58" rx="9"/>
  <ellipse class="zone" cx="622" cy="556" rx="82" ry="54"/><path class="arrow" d="M226 500 C260 494 290 498 312 506"/><path class="arrow" d="M232 612 C260 608 290 610 312 618"/><path class="arrow" d="M420 510 C476 516 522 534 552 548"/><path class="arrow" d="M450 614 C492 602 526 578 552 562"/>
  <path class="vertical" d="M396 348 C348 396 286 438 230 476"/><path class="vertical" d="M414 326 C344 410 262 514 224 588"/><path class="vertical" d="M438 220 C430 320 414 400 388 476"/>
  <circle class="t" cx="300" cy="316" r="13"/><circle class="t" cx="472" cy="190" r="13"/><circle class="t" cx="472" cy="294" r="13"/><circle class="ct" cx="642" cy="190" r="13"/><circle class="ct" cx="780" cy="202" r="13"/><circle class="ct" cx="660" cy="556" r="13"/><circle class="ct" cx="456" cy="620" r="13"/>
  <text class="label" x="98" y="331">T Spawn</text><text class="label" x="228" y="321">Outside</text><text class="label" x="365" y="321">Secret</text><text class="label" x="232" y="207">Lobby</text><text class="label" x="389" y="195">Hut / Squeaky</text><text class="label" x="572" y="196">A UPPER</text><text class="label" x="706" y="207">Heaven</text><text class="label" x="404" y="299">Ramp</text><text class="label" x="157" y="513">Secret entry</text><text class="label" x="157" y="625">Bottom Ramp</text><text class="label" x="358" y="513">Vents</text><text class="label" x="344" y="625">Window / Double</text><text class="label" x="586" y="561">B LOWER</text><text class="label" x="715" y="649">Decon</text>
  <text class="head" x="918" y="72">Teaching read</text><text class="small" x="918" y="106">Outside opens Secret;</text><text class="small" x="918" y="128">Lobby preserves upper A.</text><text class="small" x="918" y="150">Always call the layer when</text><text class="small" x="918" y="172">Secret, Ramp, or Vents move.</text><text class="head" x="918" y="234">Legend</text><circle class="ct" cx="936" cy="274" r="11"/><text class="legend" x="962" y="280">CT hold</text><circle class="t" cx="936" cy="314" r="11"/><text class="legend" x="962" y="320">T pressure</text><rect class="zone" x="924" y="348" width="25" height="20" rx="5"/><text class="legend" x="962" y="364">Decision zone</text><line class="arrow" x1="922" y1="408" x2="952" y2="408"/><text class="legend" x="962" y="414">Trade route</text><line class="vertical" x1="922" y1="456" x2="952" y2="456"/><text class="legend" x="962" y="462">Layer change</text><text class="head" x="918" y="530">Round rule</text><text class="small" x="918" y="564">Do not infer lower from</text><text class="small" x="918" y="586">Outside noise alone. Move</text><text class="small" x="918" y="608">the bomb after verified</text><text class="small" x="918" y="630">vertical information.</text>
</svg>
